Coordinates
version=1
nRows=4
nColumns=63
inDegrees=yes

Units are S.I. units (second, meters, Newtons, ...)
If the header above contains a line with 'inDegrees', this indicates whether rotational values are in degrees (yes) or radians (no).

endheader
time	pelvis_tilt	pelvis_list	pelvis_rotation	pelvis_tx	pelvis_ty	pelvis_tz	hip_flexion_r	hip_adduction_r	hip_rotation_r	knee_angle_r	knee_angle_r_beta	ankle_angle_r	subtalar_angle_r	mtp_angle_r	hip_flexion_l	hip_adduction_l	hip_rotation_l	knee_angle_l	knee_angle_l_beta	ankle_angle_l	subtalar_angle_l	mtp_angle_l	L5_S1_Flex_Ext	L5_S1_Lat_Bending	L5_S1_axial_rotation	L4_L5_Flex_Ext	L4_L5_Lat_Bending	L4_L5_axial_rotation	L3_L4_Flex_Ext	L3_L4_Lat_Bending	L3_L4_axial_rotation	L2_L3_Flex_Ext	L2_L3_Lat_Bending	L2_L3_axial_rotation	L1_L2_Flex_Ext	L1_L2_Lat_Bending	L1_L2_axial_rotation	L1_T12_Flex_Ext	L1_T12_Lat_Bending	L1_T12_axial_rotation	Abs_r3	Abs_r2	Abs_r1	Abs_t1	Abs_t2	neck_flexion	neck_bending	neck_rotation	arm_flex_r	arm_add_r	arm_rot_r	elbow_flex_r	pro_sup_r	wrist_flex_r	wrist_dev_r	arm_flex_l	arm_add_l	arm_rot_l	elbow_flex_l	pro_sup_l	wrist_flex_l	wrist_dev_l
      3.15254237	     -1.18040359	     -6.38190629	     93.02338630	      0.14012373	      0.91181963	      0.68409617	      3.21757812	     -3.01381967	    -17.36331207	     13.62945895	      0.23787893	     27.65581629	     18.69951803	      0.00000000	      6.09647278	      1.48084618	      7.30585728	     16.56487333	      0.28911158	     27.37532354	     -8.65627524	      0.00000000	      0.18008899	      0.16969019	      1.83612003	      0.33444326	      0.22568795	      1.95087753	      0.29586820	      0.41258473	      1.95087753	      0.20582371	      0.41258473	      1.60660502	      0.16723064	      0.34603224	      1.49184752	      0.10290285	      0.26285011	      1.37709002	      1.28635765	      1.91956938	     10.21194874	      0.00000000	      0.00000000	     28.18269274	     -2.97701907	     -4.58825086	     13.18705587	     -5.21404459	    164.24164246	      0.85665133	      2.19057812	      4.35008865	     -6.65727694	     21.61485245	      7.18390261	    169.50067100	      0.32402638	      1.09263305	     -7.08734926	    -16.86075513
      3.16949153	     -1.18924034	     -6.60464588	     92.53043497	      0.14051080	      0.91038731	      0.68456979	      3.66543490	     -3.07530880	    -17.01602766	     13.95125080	      0.24349526	     27.85492796	     18.73712572	      0.00000000	      6.53614380	      1.41739531	      6.27922240	     17.04437722	      0.29748050	     28.00614696	     -7.99999499	      0.00000000	      0.20354129	      0.19626263	      1.91298856	      0.37799653	      0.26102929	      2.03255034	      0.33439798	      0.47719295	      2.03255034	      0.23262734	      0.47719295	      1.67386499	      0.18900844	      0.40021875	      1.55430320	      0.11630349	      0.30401081	      1.43474142	      1.45387507	      2.22016208	     10.63946846	      0.00000000	      0.00000000	     28.23305829	     -3.55071524	     -3.56319469	     13.25172944	     -4.72553867	    150.67461198	      2.53290326	      1.54122733	      6.16519885	     -7.24353196	     22.35892718	      8.46630252	    170.91780397	      0.28269294	      1.07650749	     -8.23553224	    -17.14093072
      3.18644068	     -1.28185101	     -6.78961323	     92.06460496	      0.14164629	      0.90967928	      0.68562842	      4.08347826	     -3.15063573	    -16.56599719	     14.18759921	      0.24762032	     27.92194023	     18.75352049	      0.00000000	      6.88614343	      1.33779737	      4.98182149	     17.35281888	      0.30286382	     28.43524539	     -6.88501503	      0.00000000	      0.21450162	      0.18991790	      1.91911767	      0.39835096	      0.25259081	      2.03906253	      0.35240471	      0.46176639	      2.03906253	      0.24515390	      0.46176639	      1.67922797	      0.19918620	      0.38728059	      1.55928311	      0.12256623	      0.29418283	      1.43933826	      1.53216362	      2.14838932	     10.67355677	      0.00000000	      0.00000000	     28.24776755	     -3.52189862	     -3.03109797	     14.55990525	     -4.76667779	    132.72083347	      7.41504329	      1.82275157	      5.97004609	     -7.00668505	     22.84359616	      9.18524576	    170.14091036	      0.27076506	      1.02998860	     -7.41612312	    -17.94276557
      3.20338983	     -1.01330111	     -6.90844650	     91.59371901	      0.14157968	      0.90885535	      0.68657888	      4.43726321	     -2.88347507	    -16.02278791	     14.38145818	      0.25100380	     28.08755494	     18.79342450	      0.00000000	      7.11724220	      1.02962042	      4.37565308	     17.59961029	      0.30717115	     28.88964666	     -6.70340379	      0.00000000	      0.21758672	      0.22588983	      2.00102253	      0.40408030	      0.30043348	      2.12608644	      0.35747322	      0.54922854	      2.12608644	      0.24867986	      0.54922854	      1.75089472	      0.20205103	      0.46063455	      1.62583081	      0.12432905	      0.34990335	      1.50076690	      1.55420019	      2.55531098	     11.12908702	      0.00000000	      0.00000000	     28.26376568	     -3.75913756	     -3.57004930	     11.19825431	     -9.74265818	     72.20346888	     21.97691672	     37.19802761	     -1.94683635	      1.60655471	     23.05844428	     10.09718786	    168.48308770	      0.29274291	      0.97938025	     -4.55284533	    -18.79528504
